<svg xmlns="http://www.w3.org/2000/svg" width="154.54" height="176.519" viewBox="0 0 154.54 176.519">
  <g id="Group_68" data-name="Group 68" transform="translate(-553.486 -34.536)">
    <g id="Group_63" data-name="Group 63">
      <g id="Group_57" data-name="Group 57">
        <path id="Path_135" data-name="Path 135" d="M651.231,152.4c-8.482-4.627-6.169-26.991-6.169-26.991l-12.7.818v-.815l-1.359.408-1.359-.408v.815l-12.7-.818s2.313,22.364-6.169,26.991-58.6,6.94-53.2,58.6H704.436C709.834,159.341,659.713,157.027,651.231,152.4Z" fill="#f19c7c"/>
        <path id="Path_136" data-name="Path 136" d="M615.157,146.632q15.219-2.27,30.419-4.681a67.825,67.825,0,0,1-.514-16.541l-12.7.818v-.815l-1.359.408-1.359-.408v.815l-12.7-.818S618.277,138.4,615.157,146.632Z" fill="#c47d66"/>
      </g>
      <g id="Group_62" data-name="Group 62">
        <g id="Group_58" data-name="Group 58">
          <path id="Path_137" data-name="Path 137" d="M659.378,155c-6.9,6.159-17.054,10.056-28.378,10.056s-21.473-3.9-28.378-10.056c-16.691,4.491-49.477,13.71-45.058,56.005H704.436C708.855,168.709,676.069,159.49,659.378,155Z" fill="#fc6a5a"/>
          <path id="Path_138" data-name="Path 138" d="M557.193,202.221a70.384,70.384,0,0,0,.371,8.783H704.436c1.918-18.356-3.176-30.476-10.917-38.689C647.675,180.32,602.307,190.765,557.193,202.221Z" fill="#d35450"/>
        </g>
        <g id="Group_61" data-name="Group 61">
          <g id="Group_59" data-name="Group 59">
            <path id="Path_139" data-name="Path 139" d="M600.36,153.055l8.667,58H553.693S547.693,161.722,600.36,153.055Z" fill="#765e69"/>
            <path id="Path_140" data-name="Path 140" d="M600.36,153.055l8.667,58-23.334-36.667,9.334-12.666-12-4.667A51.016,51.016,0,0,1,600.36,153.055Z" fill="#8e7280"/>
          </g>
          <g id="Group_60" data-name="Group 60">
            <path id="Path_141" data-name="Path 141" d="M661.153,153.055l-8.666,58H707.82S713.82,161.722,661.153,153.055Z" fill="#765e69"/>
            <path id="Path_142" data-name="Path 142" d="M661.153,153.055l-8.666,58,23.333-36.667-9.333-12.666,12-4.667A51.017,51.017,0,0,0,661.153,153.055Z" fill="#8e7280"/>
          </g>
        </g>
      </g>
    </g>
    <g id="Group_67" data-name="Group 67">
      <g id="Group_64" data-name="Group 64">
        <path id="Path_143" data-name="Path 143" d="M606.163,92.674c-2.5-7.753-8.417-5.958-8.971-5.771-.581.068-6.7.976-5.641,9.053,1.063,8.126,5.778,12.529,10.2,11.236C606.3,106.47,608.677,100.473,606.163,92.674Z" fill="#c47d66"/>
        <path id="Path_144" data-name="Path 144" d="M656.065,92.674c2.5-7.753,8.417-5.958,8.971-5.771.581.068,6.7.976,5.641,9.053-1.063,8.126-5.777,12.529-10.2,11.236C655.929,106.47,653.551,100.473,656.065,92.674Z" fill="#c47d66"/>
        <path id="Path_145" data-name="Path 145" d="M600.1,80.928c3.1-33.99,28.938-32.086,31.375-31.83,2.437-.256,28.278-2.16,31.375,31.83,3.115,34.194-12.115,56.525-31.375,55.3C612.215,137.453,596.985,115.122,600.1,80.928Z" fill="#f19c7c"/>
      </g>
      <g id="Group_65" data-name="Group 65">
        <path id="Path_146" data-name="Path 146" d="M632.13,108.023l5.91-4.052-2.109-19.057" fill="none" stroke="#a06653" stroke-miterlimit="10" stroke-width="1.661"/>
        <path id="Path_147" data-name="Path 147" d="M644.649,114.129c-6.152,5.98-15.729,5.589-23.622.259" fill="#fff"/>
        <path id="Path_148" data-name="Path 148" d="M655.844,82.394s-8.6-9.9-17.207-.675" fill="none" stroke="#352c38" stroke-miterlimit="10" stroke-width="4"/>
        <path id="Path_149" data-name="Path 149" d="M626.806,81.736s-9.587-9.285-17.9.52" fill="none" stroke="#352c38" stroke-miterlimit="10" stroke-width="4"/>
        <path id="Path_150" data-name="Path 150" d="M622.634,94.712s-.466-6.532-6.065-6.066c-4.7.392-4.2,6.066-4.2,6.066" fill="none" stroke="#352c38" stroke-miterlimit="10" stroke-width="1.195"/>
        <path id="Path_151" data-name="Path 151" d="M651.56,94.245s-.467-6.532-6.065-6.065c-4.7.392-4.2,6.065-4.2,6.065" fill="none" stroke="#352c38" stroke-miterlimit="10" stroke-width="1.195"/>
        <path id="Path_152" data-name="Path 152" d="M616.027,114.055h16l16.666.333s-3.9-7.032-16.563-6.365S618.36,111.722,616.027,114.055Z" fill="#352c38"/>
      </g>
      <g id="Group_66" data-name="Group 66">
        <path id="Path_153" data-name="Path 153" d="M611.693,58.722s13,16.666,31.667,13.666l-4.333-6s11.333,5.334,30.333.334c0,0,1.333-20.667-31-25.334,0,0,15.333,1.334,26,7.667,0,0-31.333-32.667-57,0,0,0-14.667.333-15.333,16.667s3.333,22.333,3.333,22.333,3.333-2.667,4.333,3,0,14.333,3.667,22.333l6-4.333s-7.667-18-6-33C603.36,76.055,613.027,74.055,611.693,58.722Z" fill="#352c38"/>
        <path id="Path_154" data-name="Path 154" d="M664.693,63.722s4.334,36.666-6,51.333l-4-5a56.5,56.5,0,0,0,2.667-44Z" fill="#352c38"/>
      </g>
    </g>
  </g>
</svg>
