<svg xmlns="http://www.w3.org/2000/svg" width="148.351" height="176.287" viewBox="0 0 148.351 176.287">
  <g id="Group_56" data-name="Group 56" transform="translate(-47.158 -261.717)">
    <g id="Group_47" data-name="Group 47">
      <path id="Path_116" data-name="Path 116" d="M163.36,287.388s2.667,19,10.667,31.667c11.537,18.267-3.334,20.667-.334,33.333s26,23.334-1.333,52.334c-17.889,18.979-39.333-18-39.333-18l-6-48.334Z" fill="#fc6a5a"/>
      <path id="Path_117" data-name="Path 117" d="M154.534,318.3q-4.329-3.243-8.433-6.688l-19.074,23.64,6,42.675a69.846,69.846,0,0,0,12.844,14.138c1.957-2.169,6.558,7.887,9.156,6.988,8.666-3,24.333-19.667,13-32.333C154.49,351.593,170.693,334.388,154.534,318.3Z" fill="#d35450"/>
    </g>
    <g id="Group_50" data-name="Group 50">
      <g id="Group_48" data-name="Group 48">
        <path id="Path_118" data-name="Path 118" d="M141.231,379.4c-8.482-4.627-6.169-26.991-6.169-26.991l-12.7.818v-.815L121,352.82l-1.359-.407v.815l-12.7-.818s2.313,22.364-6.169,26.991-58.6,6.94-53.2,58.6H194.436C199.834,386.341,149.713,384.027,141.231,379.4Z" fill="#f19c7c"/>
        <path id="Path_119" data-name="Path 119" d="M105.157,373.632q15.219-2.27,30.419-4.681a67.825,67.825,0,0,1-.514-16.541l-12.7.818v-.815L121,352.82l-1.359-.407v.815l-12.7-.818S108.277,365.4,105.157,373.632Z" fill="#c47d66"/>
      </g>
      <g id="Group_49" data-name="Group 49">
        <path id="Path_120" data-name="Path 120" d="M153.09,417.722a79.843,79.843,0,0,1,1.028-34.41c-2.146-.622-4.149-1.154-5.932-1.634-.809,9.336-1.9,18.816-5.417,27.226a45.331,45.331,0,0,1-4.876,8.818Z" fill="#352c38"/>
        <path id="Path_121" data-name="Path 121" d="M168.527,388.175c-8.387,11.475-26.364,19.41-47.194,19.41s-38.806-7.935-47.193-19.41C59.214,395.212,44.505,408.71,47.565,438H195.1C198.162,408.71,183.453,395.212,168.527,388.175Z" fill="#5d8584"/>
        <path id="Path_122" data-name="Path 122" d="M117.527,424.388c29.627,0,55.558-8.569,69.825-21.381-5.074-6.939-11.924-11.578-18.825-14.832-8.387,11.475-26.364,19.41-47.194,19.41s-38.806-7.935-47.193-19.41c-8.151,3.843-16.23,9.621-21.393,18.837C67.639,417.571,91.109,424.388,117.527,424.388Z" fill="#6f9b99"/>
      </g>
    </g>
    <g id="Group_55" data-name="Group 55">
      <g id="Group_51" data-name="Group 51">
        <path id="Path_123" data-name="Path 123" d="M96.163,319.674c-2.5-7.753-8.417-5.958-8.971-5.771-.581.067-6.7.976-5.641,9.053,1.063,8.126,5.778,12.529,10.2,11.236C96.3,333.47,98.677,327.473,96.163,319.674Z" fill="#c47d66"/>
        <path id="Path_124" data-name="Path 124" d="M146.065,319.674c2.5-7.753,8.417-5.958,8.971-5.771.581.067,6.7.976,5.641,9.053-1.063,8.126-5.777,12.529-10.2,11.236C145.929,333.47,143.551,327.473,146.065,319.674Z" fill="#c47d66"/>
        <path id="Path_125" data-name="Path 125" d="M90.1,307.928c3.1-33.99,28.938-32.086,31.375-31.83,2.437-.256,28.278-2.16,31.375,31.83,3.115,34.194-12.115,56.525-31.375,55.3C102.215,364.453,86.985,342.122,90.1,307.928Z" fill="#f19c7c"/>
      </g>
      <g id="Group_53" data-name="Group 53">
        <path id="Path_126" data-name="Path 126" d="M102.86,280.555s3.167,25.833,28.833,30.833l-6.333-15.833s2.167,19.167,27.667,18.167c0,0,9.333,4.333,6,14.333a20.5,20.5,0,0,0,5.666-20.667c-3.5-13,4.667-13.833-8.333-33C144.894,257.483,107.36,255.555,102.86,280.555Z" fill="#fc6a5a"/>
        <path id="Path_127" data-name="Path 127" d="M110.027,275.055s-12.334-10-21.667,1.333-7,29-15.667,40-7.333,20.667,3.334,31-30,20-17,45.667,45.333,12,47.666-8.333,1-24.667,1-24.667-13.666-10.667-16-27.667,1.667-25.333,9-31.333S114.693,289.722,110.027,275.055Z" fill="#fc6a5a"/>
        <g id="Group_52" data-name="Group 52">
          <path id="Path_128" data-name="Path 128" d="M65.027,381.055c-2.718-5.248-3.114-9.334-2.143-12.67-5.486,6.3-9.193,14.135-3.857,24.67,13,25.667,45.333,12,47.666-8.333.052-.451.1-.885.148-1.32C96.61,391.484,75.061,400.429,65.027,381.055Z" fill="#d35450"/>
        </g>
      </g>
      <g id="Group_54" data-name="Group 54">
        <path id="Path_129" data-name="Path 129" d="M125.931,324.922l2.109,10.051-3.908,4.052" fill="none" stroke="#a06653" stroke-miterlimit="10" stroke-width="1.661"/>
        <path id="Path_130" data-name="Path 130" d="M134.649,345.131c-6.152,5.981-16.573,5.649-24.466.32" fill="#fff"/>
        <path id="Path_131" data-name="Path 131" d="M145.844,313.4s-8.1-9.9-16.207-.676" fill="none" stroke="#352c38" stroke-miterlimit="10" stroke-width="2.701"/>
        <path id="Path_132" data-name="Path 132" d="M113.655,313.4s-8.1-9.9-16.207-.676" fill="none" stroke="#352c38" stroke-miterlimit="10" stroke-width="2.701"/>
        <path id="Path_133" data-name="Path 133" d="M112.634,325.714s-.466-6.532-6.065-6.065c-4.7.392-4.2,6.065-4.2,6.065" fill="none" stroke="#352c38" stroke-miterlimit="10" stroke-width="1.195"/>
        <path id="Path_134" data-name="Path 134" d="M141.56,325.247s-.467-6.531-6.065-6.065c-4.7.392-4.2,6.065-4.2,6.065" fill="none" stroke="#352c38" stroke-miterlimit="10" stroke-width="1.195"/>
      </g>
    </g>
  </g>
</svg>
