<svg xmlns="http://www.w3.org/2000/svg" width="148.724" height="179.519" viewBox="0 0 148.724 179.519">
  <g id="Group_78" data-name="Group 78" transform="translate(-386.142 -31.485)">
    <g id="Group_73" data-name="Group 73">
      <g id="Group_69" data-name="Group 69">
        <path id="Path_155" data-name="Path 155" d="M481.231,152.4c-8.482-4.627-6.169-26.991-6.169-26.991l-12.7.818v-.815l-1.359.408-1.359-.408v.815l-12.7-.818s2.313,22.364-6.169,26.991-58.6,6.94-53.205,58.6H534.436C539.834,159.341,489.713,157.027,481.231,152.4Z" fill="#ffac9d"/>
        <path id="Path_156" data-name="Path 156" d="M445.157,146.632q15.219-2.27,30.419-4.681a67.825,67.825,0,0,1-.514-16.541l-12.7.818v-.815l-1.359.408-1.359-.408v.815l-12.7-.818S448.277,138.4,445.157,146.632Z" fill="#cc887f"/>
      </g>
      <g id="Group_72" data-name="Group 72">
        <path id="Path_157" data-name="Path 157" d="M483.87,152c-4.235-2.31-5.795-9.011-6.294-15.18-3.728,1.409-11.181,2.231-15.966,2.231-5.744,0-13.013-1.181-17.12-3.146-.417,6.408-1.914,13.67-6.359,16.1-8.54,4.658-57,6.987-51.565,59H534.434C539.868,158.991,492.409,156.662,483.87,152Z" fill="#d68950"/>
        <path id="Path_158" data-name="Path 158" d="M460.932,164.055c11.66,0,22.118-3.876,29.265-10.011a32.85,32.85,0,0,1-5.9-2.04c-4.235-2.31-5.8-9.011-6.294-15.18-3.728,1.409-11.181,2.231-15.966,2.231-5.744,0-13.013-1.181-17.12-3.146-.417,6.408-1.914,13.67-6.36,16.1a37.071,37.071,0,0,1-6.664,2.238C439.034,160.264,449.4,164.055,460.932,164.055Z" fill="#ffa65b"/>
        <g id="Group_70" data-name="Group 70">
          <path id="Path_159" data-name="Path 159" d="M406.86,204.847l8.25-7.792,7.792,7.792" fill="none" stroke="#765e69" stroke-miterlimit="10" stroke-width="1.833"/>
          <path id="Path_160" data-name="Path 160" d="M499.664,204.538l9.4-7.483,7.792,7.792" fill="none" stroke="#765e69" stroke-miterlimit="10" stroke-width="1.833"/>
          <path id="Path_161" data-name="Path 161" d="M484.148,204.587l8.879-7.532,7.792,7.792" fill="none" stroke="#765e69" stroke-miterlimit="10" stroke-width="1.833"/>
          <path id="Path_162" data-name="Path 162" d="M469.193,204.847l8.25-7.792,7.792,7.792" fill="none" stroke="#765e69" stroke-miterlimit="10" stroke-width="1.833"/>
          <path id="Path_163" data-name="Path 163" d="M452.821,204.684l9.04-7.629,8.435,7.58" fill="none" stroke="#765e69" stroke-miterlimit="10" stroke-width="1.833"/>
          <path id="Path_164" data-name="Path 164" d="M438.027,204.847l8.25-7.792,7.792,7.792" fill="none" stroke="#765e69" stroke-miterlimit="10" stroke-width="1.833"/>
          <path id="Path_165" data-name="Path 165" d="M421.788,204.684l8.906-7.629,8.324,7.483" fill="none" stroke="#765e69" stroke-miterlimit="10" stroke-width="1.833"/>
        </g>
        <g id="Group_71" data-name="Group 71">
          <path id="Path_166" data-name="Path 166" d="M406.86,197.18l8.25-7.792,7.792,7.792" fill="none" stroke="#765e69" stroke-miterlimit="10" stroke-width="1"/>
          <path id="Path_167" data-name="Path 167" d="M499.664,196.871l9.4-7.483,7.792,7.792" fill="none" stroke="#765e69" stroke-miterlimit="10" stroke-width="1"/>
          <path id="Path_168" data-name="Path 168" d="M484.148,196.92l8.879-7.531,7.792,7.792" fill="none" stroke="#765e69" stroke-miterlimit="10" stroke-width="1"/>
          <path id="Path_169" data-name="Path 169" d="M469.193,197.18l8.25-7.792,7.792,7.792" fill="none" stroke="#765e69" stroke-miterlimit="10" stroke-width="1"/>
          <path id="Path_170" data-name="Path 170" d="M452.821,197.018l9.04-7.629,8.435,7.58" fill="none" stroke="#765e69" stroke-miterlimit="10" stroke-width="1"/>
          <path id="Path_171" data-name="Path 171" d="M438.027,197.18l8.25-7.792,7.792,7.792" fill="none" stroke="#765e69" stroke-miterlimit="10" stroke-width="1"/>
          <path id="Path_172" data-name="Path 172" d="M421.788,197.018l8.906-7.629,8.324,7.483" fill="none" stroke="#765e69" stroke-miterlimit="10" stroke-width="1"/>
        </g>
        <path id="Path_173" data-name="Path 173" d="M409.36,192.3a105.5,105.5,0,0,0-3.4-27.832c-12,7.79-22.023,21.327-19.39,46.531h21.372A118.766,118.766,0,0,0,409.36,192.3Z" fill="#ffa65b"/>
        <path id="Path_174" data-name="Path 174" d="M514.884,164.062A104.706,104.706,0,0,0,511.36,192.3a118.769,118.769,0,0,0,1.422,18.7h21.652C537.114,185.347,526.923,171.784,514.884,164.062Z" fill="#ffa65b"/>
      </g>
    </g>
    <g id="Group_77" data-name="Group 77">
      <g id="Group_74" data-name="Group 74">
        <path id="Path_175" data-name="Path 175" d="M436.163,92.674c-2.5-7.753-8.417-5.958-8.971-5.771-.581.068-6.7.976-5.641,9.053,1.063,8.126,5.778,12.529,10.2,11.236C436.3,106.47,438.677,100.473,436.163,92.674Z" fill="#cc887f"/>
        <path id="Path_176" data-name="Path 176" d="M486.065,92.674c2.5-7.753,8.417-5.958,8.971-5.771.581.068,6.7.976,5.641,9.053-1.063,8.126-5.777,12.529-10.2,11.236C485.929,106.47,483.551,100.473,486.065,92.674Z" fill="#cc887f"/>
        <path id="Path_177" data-name="Path 177" d="M430.1,80.928c3.1-33.99,28.938-32.086,31.375-31.83,2.437-.256,28.278-2.16,31.375,31.83,3.115,34.194-12.115,56.525-31.375,55.3C442.215,137.453,426.985,115.122,430.1,80.928Z" fill="#ffac9d"/>
      </g>
      <g id="Group_75" data-name="Group 75">
        <path id="Path_178" data-name="Path 178" d="M428.86,57.055s-7,4.5-2,20l3,17.5,2.5.5s-1-26.5,7.5-32.5S428.86,57.055,428.86,57.055Z" fill="#d35450"/>
        <path id="Path_179" data-name="Path 179" d="M482.36,59.555s-33.5,19.5-51.5,4,1-23.5,8.5-22.5c0,0-2.5-8.5,7.5-9.5s8,9,23,9,22.5,1,21,13.5c0,0,7.5-4.5,10,4s-7,36.5-7,36.5l-1,4.5h-2.5v-24S480.86,78.055,482.36,59.555Z" fill="#fc6a5a"/>
        <path id="Path_180" data-name="Path 180" d="M500.86,58.055c-2.5-8.5-10-4-10-4,.864-7.2-1.262-10.578-6.08-12.155A46.96,46.96,0,0,1,477.3,62.146c3.143-1.478,5.062-2.591,5.062-2.591-1.5,18.5,8,15.5,8,15.5v24h2.5l1-4.5S503.36,66.555,500.86,58.055Z" fill="#d35450"/>
      </g>
      <g id="Group_76" data-name="Group 76">
        <path id="Path_181" data-name="Path 181" d="M465.931,84.914l2.109,19.057-5.91,4.052" fill="none" stroke="#cc887f" stroke-miterlimit="10" stroke-width="1.661"/>
        <path id="Path_182" data-name="Path 182" d="M474.649,114.129c-6.152,5.98-16.573,5.648-24.466.319" fill="#fff"/>
        <path id="Path_183" data-name="Path 183" d="M485.844,82.394s-8.1-9.9-16.207-.675" fill="none" stroke="#352c38" stroke-miterlimit="10" stroke-width="2.701"/>
        <path id="Path_184" data-name="Path 184" d="M453.655,82.394s-8.1-9.9-16.207-.675" fill="none" stroke="#352c38" stroke-miterlimit="10" stroke-width="2.701"/>
        <path id="Path_185" data-name="Path 185" d="M427.467,85.981l8.7,6.693,21.854.685s5.626-7.9,10.321,0h22.524l6.767-6.343" fill="none" stroke="#765e69" stroke-miterlimit="10" stroke-width="1.434"/>
        <circle id="Ellipse_3" data-name="Ellipse 3" cx="11.262" cy="11.262" r="11.262" transform="translate(435.493 82.097)" fill="#a9c7db" stroke="#765e69" stroke-miterlimit="10" stroke-width="1.434"/>
        <circle id="Ellipse_4" data-name="Ellipse 4" cx="11.262" cy="11.262" r="11.262" transform="translate(468.338 82.097)" fill="#a9c7db" stroke="#765e69" stroke-miterlimit="10" stroke-width="1.434"/>
        <path id="Path_186" data-name="Path 186" d="M452.634,94.712s-.466-6.532-6.065-6.066c-4.7.392-4.2,6.066-4.2,6.066" fill="none" stroke="#352c38" stroke-miterlimit="10" stroke-width="1.195"/>
        <path id="Path_187" data-name="Path 187" d="M481.56,94.245s-.467-6.532-6.065-6.065c-4.7.392-4.2,6.065-4.2,6.065" fill="none" stroke="#352c38" stroke-miterlimit="10" stroke-width="1.195"/>
      </g>
    </g>
  </g>
</svg>
