<svg xmlns="http://www.w3.org/2000/svg" xmlns:xlink="http://www.w3.org/1999/xlink" width="149.788" height="174.212" viewBox="0 0 149.788 174.212">
  <defs>
    <clipPath id="clip-path">
      <path id="Path_54" data-name="Path 54" d="M656.639,380.353c-5.937,6.1-15.218,10.033-25.657,10.033s-19.721-3.932-25.658-10.033c-15.5,4.314-53.6,11.922-48.825,57.651H705.464C710.242,392.275,672.137,384.667,656.639,380.353Z" fill="none"/>
    </clipPath>
  </defs>
  <g id="Group_21" data-name="Group 21" transform="translate(-556.088 -263.792)">
    <g id="Group_11" data-name="Group 11">
      <g id="Group_1" data-name="Group 1">
        <path id="Path_1" data-name="Path 1" d="M651.231,379.4c-8.482-4.627-6.169-26.991-6.169-26.991l-12.7.818v-.815L631,352.82l-1.359-.407v.815l-12.7-.818s2.313,22.364-6.169,26.991-58.6,6.94-53.2,58.6H704.436C709.834,386.341,659.713,384.027,651.231,379.4Z" fill="#ffac9d"/>
        <path id="Path_2" data-name="Path 2" d="M615.157,373.632q15.219-2.27,30.419-4.681a67.825,67.825,0,0,1-.514-16.541l-12.7.818v-.815L631,352.82l-1.359-.407v.815l-12.7-.818S618.277,365.4,615.157,373.632Z" fill="#cc887f"/>
      </g>
      <g id="Group_10" data-name="Group 10">
        <path id="Path_3" data-name="Path 3" d="M656.639,380.353c-5.937,6.1-15.218,10.033-25.657,10.033s-19.721-3.932-25.658-10.033c-15.5,4.314-53.6,11.922-48.825,57.651H705.464C710.242,392.275,672.137,384.667,656.639,380.353Z" fill="#6f96bd"/>
        <g id="Group_9" data-name="Group 9">
          <g id="Group_8" data-name="Group 8" clip-path="url(#clip-path)">
            <g id="Group_7" data-name="Group 7">
              <g id="Group_2" data-name="Group 2">
                <path id="Path_4" data-name="Path 4" d="M676.216,384.169l3.943,5.914-7.491,1.577Z" fill="none" stroke="#352c38" stroke-miterlimit="10" stroke-width="0.302"/>
                <path id="Path_5" data-name="Path 5" d="M661.584,384.169l3.943,5.914-7.491,1.577Z" fill="none" stroke="#352c38" stroke-miterlimit="10" stroke-width="0.302"/>
                <path id="Path_6" data-name="Path 6" d="M646.952,384.169l3.943,5.914-7.491,1.577Z" fill="none" stroke="#352c38" stroke-miterlimit="10" stroke-width="0.302"/>
                <path id="Path_7" data-name="Path 7" d="M632.319,384.169l3.943,5.914-7.491,1.577Z" fill="none" stroke="#352c38" stroke-miterlimit="10" stroke-width="0.302"/>
                <path id="Path_8" data-name="Path 8" d="M617.687,384.169l3.943,5.914-7.491,1.577Z" fill="none" stroke="#352c38" stroke-miterlimit="10" stroke-width="0.302"/>
                <path id="Path_9" data-name="Path 9" d="M603.055,384.169,607,390.084l-7.491,1.577Z" fill="none" stroke="#352c38" stroke-miterlimit="10" stroke-width="0.302"/>
                <path id="Path_10" data-name="Path 10" d="M588.422,384.169l3.943,5.914-7.491,1.577Z" fill="none" stroke="#352c38" stroke-miterlimit="10" stroke-width="0.302"/>
                <path id="Path_11" data-name="Path 11" d="M573.79,384.169l3.943,5.914-7.491,1.577Z" fill="none" stroke="#352c38" stroke-miterlimit="10" stroke-width="0.302"/>
                <path id="Path_12" data-name="Path 12" d="M559.158,384.169l3.943,5.914-7.491,1.577Z" fill="none" stroke="#352c38" stroke-miterlimit="10" stroke-width="0.302"/>
                <path id="Path_13" data-name="Path 13" d="M690.849,384.169l3.943,5.914-7.491,1.577Z" fill="none" stroke="#352c38" stroke-miterlimit="10" stroke-width="0.302"/>
              </g>
              <g id="Group_3" data-name="Group 3">
                <path id="Path_14" data-name="Path 14" d="M684.776,396.79l3.943,5.914-7.491,1.577Z" fill="none" stroke="#352c38" stroke-miterlimit="10" stroke-width="0.302"/>
                <path id="Path_15" data-name="Path 15" d="M670.143,396.79l3.943,5.914-7.491,1.577Z" fill="none" stroke="#352c38" stroke-miterlimit="10" stroke-width="0.302"/>
                <path id="Path_16" data-name="Path 16" d="M655.511,396.79l3.943,5.914-7.491,1.577Z" fill="none" stroke="#352c38" stroke-miterlimit="10" stroke-width="0.302"/>
                <path id="Path_17" data-name="Path 17" d="M640.879,396.79l3.943,5.914-7.491,1.577Z" fill="none" stroke="#352c38" stroke-miterlimit="10" stroke-width="0.302"/>
                <path id="Path_18" data-name="Path 18" d="M626.246,396.79l3.943,5.914-7.491,1.577Z" fill="none" stroke="#352c38" stroke-miterlimit="10" stroke-width="0.302"/>
                <path id="Path_19" data-name="Path 19" d="M611.614,396.79l3.943,5.914-7.491,1.577Z" fill="none" stroke="#352c38" stroke-miterlimit="10" stroke-width="0.302"/>
                <path id="Path_20" data-name="Path 20" d="M596.982,396.79l3.943,5.914-7.491,1.577Z" fill="none" stroke="#352c38" stroke-miterlimit="10" stroke-width="0.302"/>
                <path id="Path_21" data-name="Path 21" d="M582.349,396.79l3.943,5.914-7.491,1.577Z" fill="none" stroke="#352c38" stroke-miterlimit="10" stroke-width="0.302"/>
                <path id="Path_22" data-name="Path 22" d="M567.717,396.79l3.943,5.914-7.491,1.577Z" fill="none" stroke="#352c38" stroke-miterlimit="10" stroke-width="0.302"/>
                <path id="Path_23" data-name="Path 23" d="M699.408,396.79l3.943,5.914-7.491,1.577Z" fill="none" stroke="#352c38" stroke-miterlimit="10" stroke-width="0.302"/>
              </g>
              <g id="Group_4" data-name="Group 4">
                <path id="Path_24" data-name="Path 24" d="M676.216,409.41l3.943,5.914-7.491,1.577Z" fill="none" stroke="#352c38" stroke-miterlimit="10" stroke-width="0.302"/>
                <path id="Path_25" data-name="Path 25" d="M661.584,409.41l3.943,5.914-7.491,1.577Z" fill="none" stroke="#352c38" stroke-miterlimit="10" stroke-width="0.302"/>
                <path id="Path_26" data-name="Path 26" d="M646.952,409.41l3.943,5.914L643.4,416.9Z" fill="none" stroke="#352c38" stroke-miterlimit="10" stroke-width="0.302"/>
                <path id="Path_27" data-name="Path 27" d="M632.319,409.41l3.943,5.914-7.491,1.577Z" fill="none" stroke="#352c38" stroke-miterlimit="10" stroke-width="0.302"/>
                <path id="Path_28" data-name="Path 28" d="M617.687,409.41l3.943,5.914-7.491,1.577Z" fill="none" stroke="#352c38" stroke-miterlimit="10" stroke-width="0.302"/>
                <path id="Path_29" data-name="Path 29" d="M603.055,409.41,607,415.324l-7.491,1.577Z" fill="none" stroke="#352c38" stroke-miterlimit="10" stroke-width="0.302"/>
                <path id="Path_30" data-name="Path 30" d="M588.422,409.41l3.943,5.914-7.491,1.577Z" fill="none" stroke="#352c38" stroke-miterlimit="10" stroke-width="0.302"/>
                <path id="Path_31" data-name="Path 31" d="M573.79,409.41l3.943,5.914-7.491,1.577Z" fill="none" stroke="#352c38" stroke-miterlimit="10" stroke-width="0.302"/>
                <path id="Path_32" data-name="Path 32" d="M559.158,409.41l3.943,5.914-7.491,1.577Z" fill="none" stroke="#352c38" stroke-miterlimit="10" stroke-width="0.302"/>
                <path id="Path_33" data-name="Path 33" d="M690.849,409.41l3.943,5.914L687.3,416.9Z" fill="none" stroke="#352c38" stroke-miterlimit="10" stroke-width="0.302"/>
              </g>
              <g id="Group_5" data-name="Group 5">
                <path id="Path_34" data-name="Path 34" d="M676.216,434.651l3.943,5.914-7.491,1.577Z" fill="none" stroke="#352c38" stroke-miterlimit="10" stroke-width="0.302"/>
                <path id="Path_35" data-name="Path 35" d="M661.584,434.651l3.943,5.914-7.491,1.577Z" fill="none" stroke="#352c38" stroke-miterlimit="10" stroke-width="0.302"/>
                <path id="Path_36" data-name="Path 36" d="M646.952,434.651l3.943,5.914-7.491,1.577Z" fill="none" stroke="#352c38" stroke-miterlimit="10" stroke-width="0.302"/>
                <path id="Path_37" data-name="Path 37" d="M632.319,434.651l3.943,5.914-7.491,1.577Z" fill="none" stroke="#352c38" stroke-miterlimit="10" stroke-width="0.302"/>
                <path id="Path_38" data-name="Path 38" d="M617.687,434.651l3.943,5.914-7.491,1.577Z" fill="none" stroke="#352c38" stroke-miterlimit="10" stroke-width="0.302"/>
                <path id="Path_39" data-name="Path 39" d="M603.055,434.651,607,440.565l-7.491,1.577Z" fill="none" stroke="#352c38" stroke-miterlimit="10" stroke-width="0.302"/>
                <path id="Path_40" data-name="Path 40" d="M588.422,434.651l3.943,5.914-7.491,1.577Z" fill="none" stroke="#352c38" stroke-miterlimit="10" stroke-width="0.302"/>
                <path id="Path_41" data-name="Path 41" d="M573.79,434.651l3.943,5.914-7.491,1.577Z" fill="none" stroke="#352c38" stroke-miterlimit="10" stroke-width="0.302"/>
                <path id="Path_42" data-name="Path 42" d="M559.158,434.651l3.943,5.914-7.491,1.577Z" fill="none" stroke="#352c38" stroke-miterlimit="10" stroke-width="0.302"/>
                <path id="Path_43" data-name="Path 43" d="M690.849,434.651l3.943,5.914-7.491,1.577Z" fill="none" stroke="#352c38" stroke-miterlimit="10" stroke-width="0.302"/>
              </g>
              <g id="Group_6" data-name="Group 6">
                <path id="Path_44" data-name="Path 44" d="M684.776,422.03l3.943,5.914-7.491,1.577Z" fill="none" stroke="#352c38" stroke-miterlimit="10" stroke-width="0.302"/>
                <path id="Path_45" data-name="Path 45" d="M670.143,422.03l3.943,5.914-7.491,1.577Z" fill="none" stroke="#352c38" stroke-miterlimit="10" stroke-width="0.302"/>
                <path id="Path_46" data-name="Path 46" d="M655.511,422.03l3.943,5.914-7.491,1.577Z" fill="none" stroke="#352c38" stroke-miterlimit="10" stroke-width="0.302"/>
                <path id="Path_47" data-name="Path 47" d="M640.879,422.03l3.943,5.914-7.491,1.577Z" fill="none" stroke="#352c38" stroke-miterlimit="10" stroke-width="0.302"/>
                <path id="Path_48" data-name="Path 48" d="M626.246,422.03l3.943,5.914-7.491,1.577Z" fill="none" stroke="#352c38" stroke-miterlimit="10" stroke-width="0.302"/>
                <path id="Path_49" data-name="Path 49" d="M611.614,422.03l3.943,5.914-7.491,1.577Z" fill="none" stroke="#352c38" stroke-miterlimit="10" stroke-width="0.302"/>
                <path id="Path_50" data-name="Path 50" d="M596.982,422.03l3.943,5.914-7.491,1.577Z" fill="none" stroke="#352c38" stroke-miterlimit="10" stroke-width="0.302"/>
                <path id="Path_51" data-name="Path 51" d="M582.349,422.03l3.943,5.914-7.491,1.577Z" fill="none" stroke="#352c38" stroke-miterlimit="10" stroke-width="0.302"/>
                <path id="Path_52" data-name="Path 52" d="M567.717,422.03l3.943,5.914-7.491,1.577Z" fill="none" stroke="#352c38" stroke-miterlimit="10" stroke-width="0.302"/>
                <path id="Path_53" data-name="Path 53" d="M699.408,422.03l3.943,5.914-7.491,1.577Z" fill="none" stroke="#352c38" stroke-miterlimit="10" stroke-width="0.302"/>
              </g>
            </g>
          </g>
        </g>
      </g>
    </g>
    <g id="Group_20" data-name="Group 20">
      <g id="Group_12" data-name="Group 12">
        <path id="Path_55" data-name="Path 55" d="M618.778,349.371s-12.8-3.164-23.988,1.535-9.624-27.046-8.75-28.158,21.526-13.661,21.526-13.661Z" fill="#d3b9a3"/>
        <path id="Path_56" data-name="Path 56" d="M640.932,348.93s12.967-2.4,23.854,2.96S676,325.465,675.2,324.3s-20.674-14.918-20.674-14.918Z" fill="#d3b9a3"/>
      </g>
      <g id="Group_13" data-name="Group 13">
        <path id="Path_57" data-name="Path 57" d="M606.163,319.674c-2.5-7.753-8.417-5.958-8.971-5.771-.581.067-6.7.976-5.641,9.053,1.063,8.126,5.778,12.529,10.2,11.236C606.3,333.47,608.677,327.473,606.163,319.674Z" fill="#cc887f"/>
        <path id="Path_58" data-name="Path 58" d="M656.065,319.674c2.5-7.753,8.417-5.958,8.971-5.771.581.067,6.7.976,5.641,9.053-1.063,8.126-5.777,12.529-10.2,11.236C655.929,333.47,653.551,327.473,656.065,319.674Z" fill="#cc887f"/>
        <path id="Path_59" data-name="Path 59" d="M600.1,307.928c3.1-33.99,28.938-32.086,31.375-31.83,2.437-.256,28.278-2.16,31.375,31.83,3.115,34.194-12.115,56.525-31.375,55.3C612.215,364.453,596.985,342.122,600.1,307.928Z" fill="#ffac9d"/>
      </g>
      <g id="Group_16" data-name="Group 16">
        <g id="Group_14" data-name="Group 14">
          <path id="Path_60" data-name="Path 60" d="M596.467,315.981l8.7,6.693,21.03,1.048s6.167-6.834,12.834-.334l19.333.334,8.269-6.706" fill="none" stroke="#765e69" stroke-miterlimit="10" stroke-width="1.434"/>
          <circle id="Ellipse_1" data-name="Ellipse 1" cx="10.512" cy="10.512" r="10.512" transform="translate(603.492 314.524) rotate(-11.287)" fill="#a9c7db" stroke="#765e69" stroke-miterlimit="10" stroke-width="1.339"/>
          <circle id="Ellipse_2" data-name="Ellipse 2" cx="10.512" cy="10.512" r="10.512" transform="translate(634.825 328.946) rotate(-69.523)" fill="#a9c7db" stroke="#765e69" stroke-miterlimit="10" stroke-width="1.339"/>
        </g>
        <g id="Group_15" data-name="Group 15">
          <path id="Path_61" data-name="Path 61" d="M635.931,324.755l2.109,10.051-3.908,4.052" fill="none" stroke="#cc887f" stroke-miterlimit="10" stroke-width="1.661"/>
          <path id="Path_62" data-name="Path 62" d="M644.649,344.964c-6.152,5.98-16.573,5.649-24.466.319" fill="#fff"/>
          <path id="Path_63" data-name="Path 63" d="M655.844,313.229s-8.1-9.9-16.207-.675" fill="none" stroke="#352c38" stroke-miterlimit="10" stroke-width="2.701"/>
          <path id="Path_64" data-name="Path 64" d="M623.655,313.229s-8.1-9.9-16.207-.675" fill="none" stroke="#352c38" stroke-miterlimit="10" stroke-width="2.701"/>
          <path id="Path_65" data-name="Path 65" d="M622.634,325.547s-.466-6.532-6.065-6.065c-4.7.391-4.2,6.065-4.2,6.065" fill="none" stroke="#352c38" stroke-miterlimit="10" stroke-width="1.195"/>
          <path id="Path_66" data-name="Path 66" d="M651.56,325.08s-.467-6.531-6.065-6.065c-4.7.392-4.2,6.065-4.2,6.065" fill="none" stroke="#352c38" stroke-miterlimit="10" stroke-width="1.195"/>
        </g>
      </g>
      <g id="Group_19" data-name="Group 19">
        <path id="Path_67" data-name="Path 67" d="M601.36,272.056s9.667-12.333,29-4.333c11-7,19.333-3.667,27.333,2.333l-25.666,13Z" fill="#fddec0"/>
        <g id="Group_17" data-name="Group 17">
          <path id="Path_68" data-name="Path 68" d="M566.191,343.841c-2.972-9.9-3.69-23.32,14.284-31.734s7.659-32.54,25.016-41.666" fill="none" stroke="#fddec0" stroke-miterlimit="10" stroke-width="2"/>
          <path id="Path_69" data-name="Path 69" d="M632.568,287.367s-11.369-6.209-15.294,4.43.655,19.654-15.646,30.187c-11.044,7.136,5.478,24.34-.166,32.761" fill="none" stroke="#fddec0" stroke-miterlimit="10" stroke-width="2.9"/>
          <path id="Path_70" data-name="Path 70" d="M603.761,270.056c-16.666,10.334-4.666,33.667-22,43.334s-15.666,23-12,32.666c1.3,3.434,4.922,5.307,9.043,6.3-1.274-5.009-2.289-12.139-.444-18.967,0,0-1.317,11.641,2.644,19.412a46.558,46.558,0,0,0,6.279.57,21.376,21.376,0,0,1-.59-7.316,46.548,46.548,0,0,0,2.23,7.336,60.562,60.562,0,0,0,6.505-.336c6.667-8-9.667-26.333,2.667-32.666,18.206-9.35,14-18.667,19-29s14.265-3.334,14.265-3.334C633.027,268.39,620.428,259.723,603.761,270.056Z" fill="#fddec0"/>
        </g>
        <g id="Group_18" data-name="Group 18">
          <path id="Path_71" data-name="Path 71" d="M695.263,343.841c2.973-9.9,3.691-23.32-14.284-31.734s-7.658-32.54-25.015-41.666" fill="none" stroke="#fddec0" stroke-miterlimit="10" stroke-width="2"/>
          <path id="Path_72" data-name="Path 72" d="M628.887,287.367s11.368-6.209,15.294,4.43-.656,19.654,15.646,30.187c11.043,7.136-5.479,24.34.166,32.761" fill="none" stroke="#fddec0" stroke-miterlimit="10" stroke-width="2.9"/>
          <path id="Path_73" data-name="Path 73" d="M679.693,313.39c-17.333-9.667-5.333-33-22-43.334s-28-1.666-26.333,18c0,0,8-7,13,3.334s.793,19.65,19,29c12.333,6.333-4,24.666,2.667,32.666a61.711,61.711,0,0,0,11.121.152,48.216,48.216,0,0,0,2.879-12.152,30.559,30.559,0,0,1-.776,11.925,31.269,31.269,0,0,0,4.459-.9,29.275,29.275,0,0,0,1.317-5.021,30.36,30.36,0,0,1-.148,4.653c3.154-1.1,5.753-2.856,6.814-5.653C695.36,336.39,697.027,323.056,679.693,313.39Z" fill="#fddec0"/>
        </g>
      </g>
    </g>
  </g>
</svg>
