<svg xmlns="http://www.w3.org/2000/svg" xmlns:xlink="http://www.w3.org/1999/xlink" width="152.307" height="167.38" viewBox="0 0 152.307 167.38">
  <defs>
    <clipPath id="clip-path">
      <path id="Path_81" data-name="Path 81" d="M481.676,378.558c-3.369-1.807-5.083-6.284-5.921-11.106a70.924,70.924,0,0,1-29.9.065c-.842,4.8-2.556,9.242-5.91,11.041C431.2,383.251,379.51,385.6,385.076,438H536.547C542.114,385.6,490.424,383.251,481.676,378.558Z" fill="none"/>
    </clipPath>
  </defs>
  <g id="Group_33" data-name="Group 33" transform="translate(-384.658 -270.624)">
    <g id="Group_22" data-name="Group 22">
      <path id="Path_74" data-name="Path 74" d="M432.772,330.34s-8.126-1.8-9.329,5.117,3.611,8.427,3.611,8.427-7.223-8.126-12.339-2.408,3.31,10.534,3.31,10.534-9.329-5.117-11.135,1.2,5.718,10.233,5.718,10.233-8.126-.6-7.825,3.01,8.126.6,8.126.6-11.436,2.106-9.631,11.135,10.835,3.912,10.835,3.912-6.922,3.612-5.116,15.049,53.269-11.738,53.269-11.738l.9-31Z" fill="#352c38"/>
      <path id="Path_75" data-name="Path 75" d="M492.169,330.34s8.126-1.8,9.33,5.117-3.612,8.427-3.612,8.427,7.223-8.126,12.34-2.408-3.311,10.534-3.311,10.534,9.33-5.117,11.136,1.2-5.719,10.233-5.719,10.233,8.126-.6,7.825,3.01-8.126.6-8.126.6,11.437,2.106,9.631,11.135-10.834,3.912-10.834,3.912,6.922,3.612,5.116,15.049-53.27-11.738-53.27-11.738l-.9-31Z" fill="#352c38"/>
      <path id="Path_76" data-name="Path 76" d="M432.772,330.34s-8.126-1.8-9.329,5.117,3.611,8.427,3.611,8.427-7.223-8.126-12.339-2.408,3.31,10.534,3.31,10.534-9.329-5.117-11.135,1.2,5.718,10.233,5.718,10.233-8.126-.6-7.825,3.01,8.126.6,8.126.6-11.436,2.106-9.631,11.135,10.835,3.912,10.835,3.912-6.922,3.612-5.116,15.049,53.269-11.738,53.269-11.738l.9-31Z" fill="#2a242d"/>
      <path id="Path_77" data-name="Path 77" d="M492.169,330.34s8.126-1.8,9.33,5.117-3.612,8.427-3.612,8.427,7.223-8.126,12.34-2.408-3.311,10.534-3.311,10.534,9.33-5.117,11.136,1.2-5.719,10.233-5.719,10.233,8.126-.6,7.825,3.01-8.126.6-8.126.6,11.437,2.106,9.631,11.135-10.834,3.912-10.834,3.912,6.922,3.612,5.116,15.049-53.27-11.738-53.27-11.738l-.9-31Z" fill="#2a242d"/>
    </g>
    <g id="Group_28" data-name="Group 28">
      <g id="Group_23" data-name="Group 23">
        <path id="Path_78" data-name="Path 78" d="M481.231,379.4c-8.482-4.627-6.169-26.991-6.169-26.991l-12.7.818v-.815L461,352.82l-1.359-.407v.815l-12.7-.818s2.313,22.364-6.169,26.991-58.6,6.94-53.205,58.6H534.436C539.834,386.341,489.713,384.027,481.231,379.4Z" fill="#965450"/>
        <path id="Path_79" data-name="Path 79" d="M445.157,373.632q15.219-2.27,30.419-4.681a67.825,67.825,0,0,1-.514-16.541l-12.7.818v-.815L461,352.82l-1.359-.407v.815l-12.7-.818S448.277,365.4,445.157,373.632Z" fill="#76413b"/>
      </g>
      <g id="Group_27" data-name="Group 27">
        <path id="Path_80" data-name="Path 80" d="M481.676,378.558c-3.369-1.807-5.083-6.284-5.921-11.106a70.924,70.924,0,0,1-29.9.065c-.842,4.8-2.556,9.242-5.91,11.041C431.2,383.251,379.51,385.6,385.076,438H536.547C542.114,385.6,490.424,383.251,481.676,378.558Z" fill="#fc6a5a"/>
        <g id="Group_26" data-name="Group 26" opacity="0.9">
          <g id="Group_25" data-name="Group 25" clip-path="url(#clip-path)">
            <g id="Group_24" data-name="Group 24">
              <line id="Line_1" data-name="Line 1" x2="166.319" transform="translate(376.079 374.482)" fill="none" stroke="#fdedee" stroke-miterlimit="10" stroke-width="3.058"/>
              <line id="Line_2" data-name="Line 2" x2="166.319" transform="translate(376.079 382.591)" fill="none" stroke="#fdedee" stroke-miterlimit="10" stroke-width="3.058"/>
              <line id="Line_3" data-name="Line 3" x2="166.319" transform="translate(376.079 390.701)" fill="none" stroke="#fdedee" stroke-miterlimit="10" stroke-width="3.058"/>
              <line id="Line_4" data-name="Line 4" x2="166.319" transform="translate(376.079 398.81)" fill="none" stroke="#fdedee" stroke-miterlimit="10" stroke-width="3.058"/>
              <line id="Line_5" data-name="Line 5" x2="166.319" transform="translate(376.079 406.92)" fill="none" stroke="#fdedee" stroke-miterlimit="10" stroke-width="3.058"/>
              <line id="Line_6" data-name="Line 6" x2="166.319" transform="translate(376.079 415.03)" fill="none" stroke="#fdedee" stroke-miterlimit="10" stroke-width="3.058"/>
              <line id="Line_7" data-name="Line 7" x2="166.319" transform="translate(376.079 423.139)" fill="none" stroke="#fdedee" stroke-miterlimit="10" stroke-width="3.058"/>
              <line id="Line_8" data-name="Line 8" x2="166.319" transform="translate(376.079 431.249)" fill="none" stroke="#fdedee" stroke-miterlimit="10" stroke-width="3.058"/>
            </g>
          </g>
        </g>
        <path id="Path_82" data-name="Path 82" d="M390,438H536.547c1.826-17.194-2.511-29-9.472-37.267C481.091,411.995,435.826,426.086,390,438Z" fill="#2a242d" opacity="0.3"/>
      </g>
    </g>
    <g id="Group_32" data-name="Group 32">
      <g id="Group_29" data-name="Group 29">
        <path id="Path_83" data-name="Path 83" d="M436.163,319.674c-2.5-7.753-8.417-5.958-8.971-5.771-.581.067-6.7.976-5.641,9.053,1.063,8.126,5.778,12.529,10.2,11.236C436.3,333.47,438.677,327.473,436.163,319.674Z" fill="#76413b"/>
        <path id="Path_84" data-name="Path 84" d="M486.065,319.674c2.5-7.753,8.417-5.958,8.971-5.771.581.067,6.7.976,5.641,9.053-1.063,8.126-5.777,12.529-10.2,11.236C485.929,333.47,483.551,327.473,486.065,319.674Z" fill="#76413b"/>
        <path id="Path_85" data-name="Path 85" d="M430.1,307.928c3.1-33.99,28.938-32.086,31.375-31.83,2.437-.256,28.278-2.16,31.375,31.83,3.115,34.194-12.115,56.525-31.375,55.3C442.215,364.453,426.985,342.122,430.1,307.928Z" fill="#965450"/>
      </g>
      <g id="Group_30" data-name="Group 30">
        <path id="Path_86" data-name="Path 86" d="M465.931,323.922l2.109,10.051-3.908,4.052" fill="none" stroke="#76413b" stroke-miterlimit="10" stroke-width="1.661"/>
        <path id="Path_87" data-name="Path 87" d="M474.649,344.131c-6.152,5.98-16.573,5.648-24.466.319" fill="#fff"/>
        <path id="Path_88" data-name="Path 88" d="M485.844,312.4s-8.1-9.9-16.207-.675" fill="none" stroke="#352c38" stroke-miterlimit="10" stroke-width="2.701"/>
        <path id="Path_89" data-name="Path 89" d="M453.655,312.4s-8.1-9.9-16.207-.675" fill="none" stroke="#352c38" stroke-miterlimit="10" stroke-width="2.701"/>
        <path id="Path_90" data-name="Path 90" d="M452.634,324.713s-.466-6.531-6.065-6.065c-4.7.392-4.2,6.065-4.2,6.065" fill="none" stroke="#352c38" stroke-miterlimit="10" stroke-width="1.195"/>
        <path id="Path_91" data-name="Path 91" d="M481.56,324.247s-.467-6.532-6.065-6.065c-4.7.392-4.2,6.065-4.2,6.065" fill="none" stroke="#352c38" stroke-miterlimit="10" stroke-width="1.195"/>
      </g>
      <g id="Group_31" data-name="Group 31">
        <path id="Path_92" data-name="Path 92" d="M462.476,276.1s1.6,20.836-30.005,29.564a67,67,0,0,1-1.805,20.465s-10.233-14.747-5.418-32.2S454.461,262.485,462.476,276.1Z" fill="#352c38"/>
        <path id="Path_93" data-name="Path 93" d="M459.986,276.1s-.6,20.836,31.005,29.564c0,0-1.505,13.242,1.2,23.174,0,0,10.834-17.456,6.019-34.912S468,262.485,459.986,276.1Z" fill="#352c38"/>
        <path id="Path_94" data-name="Path 94" d="M437.246,304.155a40.4,40.4,0,0,1-11.465-11.921c-.2.559-.376,1.123-.533,1.69-4.815,17.456,5.418,32.2,5.418,32.2a67,67,0,0,0,1.805-20.465C434.162,305.2,435.739,304.687,437.246,304.155Z" fill="#2a242d"/>
      </g>
    </g>
  </g>
</svg>
