<svg xmlns="http://www.w3.org/2000/svg" width="150.346" height="184.488" viewBox="0 0 150.346 184.488">
  <g id="Group_89" data-name="Group 89" transform="translate(-217.327 -26.516)">
    <g id="Group_84" data-name="Group 84">
      <g id="Group_79" data-name="Group 79">
        <path id="Path_188" data-name="Path 188" d="M312.731,152.4c-8.482-4.627-6.169-26.991-6.169-26.991l-12.7.818v-.815l-1.359.408-1.359-.408v.815l-12.7-.818s2.313,22.364-6.169,26.991-58.6,6.94-53.205,58.6H365.936C371.334,159.341,321.213,157.027,312.731,152.4Z" fill="#965450"/>
        <path id="Path_189" data-name="Path 189" d="M276.657,146.632q15.219-2.27,30.419-4.681a67.825,67.825,0,0,1-.514-16.541l-12.7.818v-.815l-1.359.408-1.359-.408v.815l-12.7-.818S279.777,138.4,276.657,146.632Z" fill="#76413b"/>
      </g>
      <g id="Group_83" data-name="Group 83">
        <g id="Group_80" data-name="Group 80">
          <path id="Path_190" data-name="Path 190" d="M323.4,154.535c-4.552,11.882-16.667,20.381-30.9,20.381s-26.35-8.5-30.9-20.381c-17.471,4.792-48.185,15.054-43.858,56.469H367.26C371.587,169.589,340.873,159.327,323.4,154.535Z" fill="#fdedee"/>
          <path id="Path_191" data-name="Path 191" d="M355.325,170.765c-18.742,12.127-41.348,16.88-62.37,23.576-19.708,6.277-39.661,11.71-59.736,16.663H367.26C369.28,191.673,363.663,179.133,355.325,170.765Z" fill="#352c38" opacity="0.1"/>
        </g>
        <g id="Group_82" data-name="Group 82">
          <g id="Group_81" data-name="Group 81">
            <path id="Path_192" data-name="Path 192" d="M326.36,155.371V211h40.9C371.353,171.835,344.107,160.535,326.36,155.371Z" fill="#6f96bd"/>
            <path id="Path_193" data-name="Path 193" d="M258.36,155.452c-17.753,5.2-44.691,16.591-40.62,55.552h40.62Z" fill="#6f96bd"/>
          </g>
          <path id="Path_194" data-name="Path 194" d="M258.85,155.452V211s-20.5-34.949-19.5-46.949S256.85,151.349,258.85,155.452Z" fill="#88bbe5"/>
          <path id="Path_195" data-name="Path 195" d="M325.325,155.452V211s20.5-34.949,19.5-46.949S327.325,151.349,325.325,155.452Z" fill="#88bbe5"/>
        </g>
      </g>
    </g>
    <g id="Group_88" data-name="Group 88">
      <g id="Group_85" data-name="Group 85">
        <path id="Path_196" data-name="Path 196" d="M267.663,92.674c-2.5-7.753-8.417-5.958-8.971-5.771-.581.068-6.7.976-5.641,9.053,1.063,8.126,5.778,12.529,10.2,11.236C267.8,106.47,270.177,100.473,267.663,92.674Z" fill="#76413b"/>
        <path id="Path_197" data-name="Path 197" d="M317.565,92.674c2.5-7.753,8.417-5.958,8.971-5.771.581.068,6.7.976,5.641,9.053-1.063,8.126-5.777,12.529-10.2,11.236C317.429,106.47,315.051,100.473,317.565,92.674Z" fill="#76413b"/>
        <path id="Path_198" data-name="Path 198" d="M261.6,80.928c3.1-33.99,28.938-32.086,31.375-31.83,2.437-.256,28.278-2.16,31.375,31.83,3.115,34.194-12.115,56.525-31.375,55.3C273.715,137.453,258.485,115.122,261.6,80.928Z" fill="#965450"/>
      </g>
      <g id="Group_86" data-name="Group 86">
        <path id="Path_199" data-name="Path 199" d="M297.431,84.914l2.109,19.057-5.91,4.052" fill="none" stroke="#76413b" stroke-miterlimit="10" stroke-width="1.661"/>
        <path id="Path_200" data-name="Path 200" d="M306.149,114.129c-6.152,5.98-16.573,5.648-24.466.319" fill="#fff"/>
        <path id="Path_201" data-name="Path 201" d="M317.344,82.394s-8.1-9.9-16.207-.675" fill="none" stroke="#352c38" stroke-miterlimit="10" stroke-width="2.701"/>
        <path id="Path_202" data-name="Path 202" d="M285.155,82.394s-8.1-9.9-16.207-.675" fill="none" stroke="#352c38" stroke-miterlimit="10" stroke-width="2.701"/>
        <path id="Path_203" data-name="Path 203" d="M284.134,94.712s-.466-6.532-6.065-6.066c-4.7.392-4.2,6.066-4.2,6.066" fill="none" stroke="#352c38" stroke-miterlimit="10" stroke-width="1.195"/>
        <path id="Path_204" data-name="Path 204" d="M313.06,94.245s-.467-6.532-6.065-6.065c-4.7.392-4.2,6.065-4.2,6.065" fill="none" stroke="#352c38" stroke-miterlimit="10" stroke-width="1.195"/>
      </g>
      <g id="Group_87" data-name="Group 87">
        <path id="Path_205" data-name="Path 205" d="M325.693,54.722c-1.743-6.973-5.9-8.735-7.9-9.181-1.149-17.961-49.146-21.254-49.77-17.819-.667,3.666,17,9.666,17,9.666s-31.667-8.333-30-1c1.353,5.957,14.145,5.316,18.9,4.865-6.684.833-29.531,4.5-19.232,14.8a16.791,16.791,0,0,0,2.722,2.188c-.959,12.769,2.829,42.812,2.829,42.812h2.665l-1-20.667c5.168-1.033,7.53-13.276,8.332-18.733,8.748.125,17.538-2.845,20.792-4.075-1.961.913-5.055,3-1.673,6.142,3.452,3.205,15.834-.7,22.048-2.951,1.143,4.868,4.816,18.523,10.287,19.617l-1,20.667h2.665S328.027,64.055,325.693,54.722Z" fill="#fddec0"/>
        <path id="Path_206" data-name="Path 206" d="M325.693,54.722c-1.743-6.973-5.9-8.735-7.9-9.181-.21-3.283-1.99-6.074-4.755-8.425-1.493,12.18-10.407,22.536-21.721,27.548,4.87,1.183,14.748-1.959,20.087-3.893,1.143,4.868,4.816,18.523,10.287,19.617l-1,20.667h2.665S328.027,64.055,325.693,54.722Z" fill="#d3b9a3"/>
      </g>
    </g>
  </g>
</svg>
