<svg xmlns="http://www.w3.org/2000/svg" width="147.683" height="178.301" viewBox="0 0 147.683 178.301">
  <g id="Group_46" data-name="Group 46" transform="translate(-217.158 -259.703)">
    <g id="Group_39" data-name="Group 39">
      <g id="Group_34" data-name="Group 34">
        <path id="Path_95" data-name="Path 95" d="M311.231,379.4c-8.482-4.627-6.169-26.991-6.169-26.991l-12.7.818v-.815L291,352.82l-1.359-.407v.815l-12.7-.818s2.313,22.364-6.169,26.991-58.6,6.94-53.205,58.6H364.436C369.834,386.341,319.713,384.027,311.231,379.4Z" fill="#ffac9d"/>
        <path id="Path_96" data-name="Path 96" d="M275.157,373.632q15.219-2.27,30.419-4.681a67.825,67.825,0,0,1-.514-16.541l-12.7.818v-.815L291,352.82l-1.359-.407v.815l-12.7-.818S278.277,365.4,275.157,373.632Z" fill="#cc887f"/>
      </g>
      <g id="Group_38" data-name="Group 38">
        <g id="Group_35" data-name="Group 35">
          <path id="Path_97" data-name="Path 97" d="M319.273,381.97c-7.531,4.4-17.563,7.085-28.58,7.085-10.922,0-20.877-2.639-28.386-6.971-16.786,4.523-49.134,13.892-44.743,55.92H364.436C368.865,395.62,335.931,386.452,319.273,381.97Z" fill="#7aa8ce"/>
          <path id="Path_98" data-name="Path 98" d="M353.867,399.7c-6.745,3.236-14.2,4.335-21.592,6.632q-15.672,4.871-31.451,9.385c-21.083,6.038-42.266,11.719-63.445,17.408q-9.062,2.433-18.117,4.876H364.436C366.325,419.929,361.408,407.908,353.867,399.7Z" fill="#6f96bd"/>
        </g>
        <g id="Group_37" data-name="Group 37">
          <g id="Group_36" data-name="Group 36">
            <path id="Path_99" data-name="Path 99" d="M256.4,383.755c-17.428,5.256-42.751,16.75-38.833,54.249h59.848Z" fill="#ffa65b"/>
            <path id="Path_100" data-name="Path 100" d="M325.18,383.628,315.634,438h48.8C368.386,400.2,342.617,388.826,325.18,383.628Z" fill="#ffa65b"/>
          </g>
          <path id="Path_101" data-name="Path 101" d="M272.148,438h5.264L256.4,383.755a85.522,85.522,0,0,0-14.387,5.639Z" fill="#d68950"/>
          <path id="Path_102" data-name="Path 102" d="M325.18,383.628,315.634,438h4.39l25.17-45.591A76.231,76.231,0,0,0,325.18,383.628Z" fill="#d68950"/>
        </g>
      </g>
    </g>
    <g id="Group_45" data-name="Group 45">
      <g id="Group_40" data-name="Group 40">
        <path id="Path_103" data-name="Path 103" d="M266.163,319.674c-2.5-7.753-8.417-5.958-8.971-5.771-.581.067-6.7.976-5.641,9.053,1.063,8.126,5.778,12.529,10.2,11.236C266.3,333.47,268.677,327.473,266.163,319.674Z" fill="#cc887f"/>
        <path id="Path_104" data-name="Path 104" d="M316.065,319.674c2.5-7.753,8.417-5.958,8.971-5.771.581.067,6.7.976,5.641,9.053-1.063,8.126-5.777,12.529-10.2,11.236C315.929,333.47,313.551,327.473,316.065,319.674Z" fill="#cc887f"/>
        <path id="Path_105" data-name="Path 105" d="M260.1,307.928c3.1-33.99,28.938-32.086,31.375-31.83,2.437-.256,28.278-2.16,31.375,31.83,3.115,34.194-12.115,56.525-31.375,55.3C272.215,364.453,256.985,342.122,260.1,307.928Z" fill="#ffac9d"/>
      </g>
      <g id="Group_41" data-name="Group 41">
        <path id="Path_106" data-name="Path 106" d="M295.931,323.922l2.109,10.051-3.908,4.052" fill="none" stroke="#cc887f" stroke-miterlimit="10" stroke-width="1.661"/>
        <path id="Path_107" data-name="Path 107" d="M304.649,344.131c-6.152,5.98-16.573,5.648-24.466.319" fill="#fff"/>
        <path id="Path_108" data-name="Path 108" d="M315.844,312.4s-8.1-9.9-16.207-.675" fill="none" stroke="#352c38" stroke-miterlimit="10" stroke-width="2.701"/>
        <path id="Path_109" data-name="Path 109" d="M283.655,312.4s-8.1-9.9-16.207-.675" fill="none" stroke="#352c38" stroke-miterlimit="10" stroke-width="2.701"/>
        <path id="Path_110" data-name="Path 110" d="M282.634,324.713s-.466-6.531-6.065-6.065c-4.7.392-4.2,6.065-4.2,6.065" fill="none" stroke="#352c38" stroke-miterlimit="10" stroke-width="1.195"/>
        <path id="Path_111" data-name="Path 111" d="M311.56,324.247s-.467-6.532-6.065-6.065c-4.7.392-4.2,6.065-4.2,6.065" fill="none" stroke="#352c38" stroke-miterlimit="10" stroke-width="1.195"/>
      </g>
      <g id="Group_44" data-name="Group 44">
        <path id="Path_112" data-name="Path 112" d="M245.026,313.023a17.964,17.964,0,0,0,4.6-4.908,15.222,15.222,0,0,0,.8-1.784c.151-.638.361-1.288.468-1.958.073-.671.188-1.355.211-2.054q0-1.051.009-2.134-.082-1.033-.169-2.1l-.043-.532a1.371,1.371,0,0,1,0-.2l0-.254c.01-.346.026-.7.048-1.052a38.993,38.993,0,0,1,.5-4.307,21.864,21.864,0,0,1,1.154-4.244,9.114,9.114,0,0,1,.446-.989,6.585,6.585,0,0,1,.514-.9l.26-.411.384-.446.194-.223.049-.056.006-.008.079-.072.436-.4a15.078,15.078,0,0,1,2.452-1.707q-.023-1.11,0-2.224a17.837,17.837,0,0,0-3.769,2.515l-.433.406-.108.1-.1.1-.072.085-.193.225-.383.451-.383.577a8.323,8.323,0,0,0-.633,1.149,11.08,11.08,0,0,0-.488,1.149,23.6,23.6,0,0,0-1.155,4.63,35.333,35.333,0,0,0-.407,4.526c-.009.371-.013.741-.01,1.112l.006.283c0,.045.016.321.019.334l.063.53q.125,1.058.245,2.087c.16,2.617.033,5.235-1.016,7.258a18.635,18.635,0,0,1-4.081,4.889,18.3,18.3,0,0,0-3.242,3.978,11.383,11.383,0,0,0-.857,1.693,8.724,8.724,0,0,0-.484,1.309l-.353,1.1.454-1.064a15.226,15.226,0,0,1,1.567-2.83A17.748,17.748,0,0,1,245.026,313.023Z" fill="#352c38" opacity="0.3"/>
        <g id="Group_43" data-name="Group 43">
          <path id="Path_113" data-name="Path 113" d="M309.027,278.722s11.333.333,15,14.333-.334,16.667-.334,28c0,0,0,7-1.666,9.333l-2.334-23S304.027,299.055,309.027,278.722Z" fill="#965450"/>
          <g id="Group_42" data-name="Group 42">
            <path id="Path_114" data-name="Path 114" d="M288.581,259.963a17.958,17.958,0,0,0-6.069,0,12.754,12.754,0,0,0-4.23,1.551,14.291,14.291,0,0,0-3.557,3.05c-2.064,2.384-3.62,5.117-5.494,7.558a18.6,18.6,0,0,1-6.9,5.845c-.7.347-1.358.586-2.151.893a24.46,24.46,0,0,0-2.279.955,18.4,18.4,0,0,0-4.251,2.765l-.433.406-.108.1-.1.1-.024.029-.048.056-.193.225-.383.451-.383.577a8.323,8.323,0,0,0-.633,1.149,11.08,11.08,0,0,0-.488,1.149,23.6,23.6,0,0,0-1.155,4.63,35.333,35.333,0,0,0-.407,4.526c-.009.371-.013.741-.01,1.112l.006.283c0,.045.016.321.019.334l.063.53q.125,1.058.245,2.087c.16,2.617.033,5.235-1.016,7.258a18.635,18.635,0,0,1-4.081,4.889,18.3,18.3,0,0,0-3.242,3.978,11.383,11.383,0,0,0-.857,1.693,8.724,8.724,0,0,0-.484,1.309l-.353,1.1.454-1.064a15.226,15.226,0,0,1,1.567-2.83,17.748,17.748,0,0,1,3.419-3.641,17.964,17.964,0,0,0,4.6-4.908,15.222,15.222,0,0,0,.8-1.784c.151-.638.361-1.288.468-1.958.073-.671.188-1.355.211-2.054q0-1.051.009-2.134-.082-1.033-.169-2.1l-.043-.532a1.371,1.371,0,0,1,0-.2l0-.254c.01-.346.026-.7.048-1.052a38.993,38.993,0,0,1,.5-4.307,21.864,21.864,0,0,1,1.154-4.244,9.114,9.114,0,0,1,.446-.989,6.585,6.585,0,0,1,.514-.9l.26-.411.384-.446.194-.223.049-.056.006-.008.079-.072.436-.4a15.555,15.555,0,0,1,2.813-1.913c-.461.295-.9.6-1.3.912-.211.159-.416.327-.618.5-.076.066-.159.131-.233.2q-.4.367-.777.777c-3.623,3.874-3.2,13.661-3.152,13.916,2.667,15.334-6.666,12.334-9.666,23.334s11.843,18.139,8.333,22c-6.667,7.333-10-2.334-10-2.334-1.333,5.667,4.667,14,12,13,6.941-.946,14.472-6.376,11.867-17.694l.023.055.776,1.855c.232.585.515,1.16.709,1.756l.546,1.8L266.64,344c.037.615.127,1.236.129,1.854a13.11,13.11,0,0,1-.134,1.848,9.47,9.47,0,0,1-.416,1.8,10.41,10.41,0,0,1-.683,1.734,11.777,11.777,0,0,1-2.207,3.059,14.321,14.321,0,0,1-3.03,2.393,18.423,18.423,0,0,1-3.578,1.644,17.49,17.49,0,0,0,3.822-1.177,14.749,14.749,0,0,0,3.445-2.147,12.932,12.932,0,0,0,2.717-3.115,11.054,11.054,0,0,0,.944-1.876,10.89,10.89,0,0,0,.623-2.016,14.835,14.835,0,0,0,.307-2.09c.048-.7.005-1.4.007-2.109-.07-.695-.168-1.388-.265-2.083-.15-.678-.33-1.349-.5-2.026-.183-.671-.45-1.3-.674-1.961l-.659-1.844c-.106-.309-.233-.628-.324-.929l-.187-.849a8.052,8.052,0,0,1-.234-1.675,4.269,4.269,0,0,1,.972-2.833c.669-.866,1.705-1.708,2.677-2.737a16.243,16.243,0,0,0,1.4-1.645,13.038,13.038,0,0,0,1.136-1.9l.479-1,.342-1.043c.1-.349.238-.7.317-1.048l.2-1.06.191-1.06.074-1.054.125-2.01.109-1.982a14.785,14.785,0,0,1,.151-1.933,27.21,27.21,0,0,1,.662-3.655,15.238,15.238,0,0,1,.5-1.8l.611-1.652.6-.869.75-.855c.286-.242.558-.5.849-.739.319-.2.619-.427.948-.615.348-.157.68-.343,1.037-.487l1.111-.367,1.172-.245c.4-.064.809-.088,1.213-.137l2.672-.293,1.317-.155c.444-.065.911-.193,1.364-.287.9-.227,1.841-.364,2.71-.672l2.6-.927.337-.171a20.548,20.548,0,0,0,15.988-14.477C312.289,274.655,303.735,261.03,288.581,259.963Zm-19.245,62.068a11.647,11.647,0,0,1-2.013,2.907c-.806.928-1.831,1.782-2.762,3.033a6.748,6.748,0,0,0-.634,1.01,4.63,4.63,0,0,0-.468,1.142l-.183.6-.062.606a5.493,5.493,0,0,0-.045,1.194l.048.467c-1.821-7.738,3.237-7.282,6.609-12.128l-.118.384Z" fill="#76413b"/>
            <path id="Path_115" data-name="Path 115" d="M266.117,307.3a40.573,40.573,0,0,1-8.7-24.962c-.324.217-.651.433-.942.66-.211.159-.416.327-.618.5-.076.066-.159.131-.233.2q-.4.367-.777.777c-3.623,3.874-3.2,13.661-3.152,13.916,2.667,15.334-6.666,12.334-9.666,23.334s11.843,18.139,8.333,22c-6.667,7.333-10-2.334-10-2.334-1.333,5.667,4.667,14,12,13,6.941-.946,14.472-6.376,11.867-17.694l.023.055.776,1.855c.232.585.515,1.16.709,1.756l.546,1.8L266.64,344c.037.615.127,1.236.129,1.854a13.11,13.11,0,0,1-.134,1.848,9.47,9.47,0,0,1-.416,1.8,10.41,10.41,0,0,1-.683,1.734,11.777,11.777,0,0,1-2.207,3.059,14.321,14.321,0,0,1-3.03,2.393,18.423,18.423,0,0,1-3.578,1.644,17.49,17.49,0,0,0,3.822-1.177,14.749,14.749,0,0,0,3.445-2.147,12.932,12.932,0,0,0,2.717-3.115,11.054,11.054,0,0,0,.944-1.876,10.89,10.89,0,0,0,.623-2.016,14.835,14.835,0,0,0,.307-2.09c.048-.7.005-1.4.007-2.109-.07-.695-.168-1.388-.265-2.083-.15-.678-.33-1.349-.5-2.026-.183-.671-.45-1.3-.674-1.961l-.659-1.844c-.106-.309-.233-.628-.324-.929l-.187-.849a8.052,8.052,0,0,1-.234-1.675,4.269,4.269,0,0,1,.972-2.833c.669-.866,1.705-1.708,2.677-2.737a16.243,16.243,0,0,0,1.4-1.645,13.038,13.038,0,0,0,1.136-1.9l.479-1,.342-1.043c.1-.349.238-.7.317-1.048l.2-1.06.191-1.06.074-1.054.122-1.962A53.15,53.15,0,0,1,266.117,307.3Zm3.591,13.944-.372.789a11.647,11.647,0,0,1-2.013,2.907c-.806.928-1.831,1.782-2.762,3.033a6.748,6.748,0,0,0-.634,1.01,4.63,4.63,0,0,0-.468,1.142l-.183.6-.062.606a5.493,5.493,0,0,0-.045,1.194l.048.467c-1.821-7.738,3.237-7.282,6.609-12.128Z" fill="#352c38" opacity="0.3"/>
          </g>
        </g>
      </g>
    </g>
  </g>
</svg>
