<svg xmlns="http://www.w3.org/2000/svg" width="154.384" height="174.805" viewBox="0 0 154.384 174.805">
  <g id="Group_107" data-name="Group 107" transform="translate(-43.988 -36.199)">
    <g id="Group_92" data-name="Group 92">
      <g id="Group_90" data-name="Group 90">
        <path id="Path_207" data-name="Path 207" d="M107.027,135.722s-15.334,9.666-7,24.333,66,10.667,36.333-24.333C111.854,106.81,107.027,135.722,107.027,135.722Z" fill="#76413b"/>
      </g>
      <g id="Group_91" data-name="Group 91">
        <path id="Path_208" data-name="Path 208" d="M163.146,98.388s-6.667,8-5.333,16c1.918,11.513-15.667,26.667-33.667,21.667s1.333-38.667,1.333-38.667Z" fill="#76413b"/>
        <path id="Path_209" data-name="Path 209" d="M79.027,98.388s6.666,8,5.333,16c-1.919,11.513,15.667,26.667,33.667,21.667s-1.334-38.667-1.334-38.667Z" fill="#76413b"/>
        <path id="Path_210" data-name="Path 210" d="M124.774,123.569a50.776,50.776,0,0,0,24-5.179,25.648,25.648,0,0,0,8.98-7.91c.753-6.5,5.392-12.092,5.392-12.092l-37.667-1s-8.2,14.283-8.941,25.625A80.6,80.6,0,0,0,124.774,123.569Z" fill="#965450"/>
        <path id="Path_211" data-name="Path 211" d="M84.509,112.992a90.4,90.4,0,0,0,40.265,10.577c.3,0,.593-.01.889-.01-.507-11.424-8.97-26.171-8.97-26.171l-37.666,1S84.934,105.484,84.509,112.992Z" fill="#965450"/>
      </g>
    </g>
    <g id="Group_96" data-name="Group 96">
      <g id="Group_93" data-name="Group 93">
        <path id="Path_212" data-name="Path 212" d="M141.231,152.4c-8.482-4.627-6.169-26.991-6.169-26.991l-12.7.818v-.815l-1.359.408-1.359-.408v.815l-12.7-.818s2.313,22.364-6.169,26.991-60.6,6.94-55.207,58.6H196.438C201.835,159.341,149.713,157.027,141.231,152.4Z" fill="#ffac9d"/>
        <path id="Path_213" data-name="Path 213" d="M105.157,146.632q15.219-2.27,30.419-4.681a67.825,67.825,0,0,1-.514-16.541l-12.7.818v-.815l-1.359.408-1.359-.408v.815l-12.7-.818S108.277,138.4,105.157,146.632Z" fill="#cc887f"/>
      </g>
      <g id="Group_95" data-name="Group 95">
        <path id="Path_214" data-name="Path 214" d="M158.482,156.38c-7.425,6.728-18.382,11.39-30.89,12.594l-6.738,24.256-3.565-24.064c-13.554-.784-25.492-5.61-33.411-12.786-17.614,5.644-43.344,17.88-39.5,54.624H197.987C201.826,174.26,176.1,162.024,158.482,156.38Z" fill="#5d8584"/>
        <g id="Group_94" data-name="Group 94">
          <path id="Path_215" data-name="Path 215" d="M118.2,175.336l-.914-6.17c-13.554-.784-25.492-5.61-33.411-12.786a89.521,89.521,0,0,0-9.344,3.543C80.781,168.413,97.783,174.661,118.2,175.336Z" fill="#78a8a5"/>
          <path id="Path_216" data-name="Path 216" d="M168.862,160.392a87.273,87.273,0,0,0-10.38-4.012c-7.425,6.728-18.382,11.39-30.89,12.594l-1.765,6.352C145.744,174.616,162.374,168.6,168.862,160.392Z" fill="#78a8a5"/>
        </g>
        <path id="Path_217" data-name="Path 217" d="M119.326,199.088a2.8,2.8,0,1,0,2.8-2.8A2.8,2.8,0,0,0,119.326,199.088Z" fill="#78a8a5"/>
      </g>
    </g>
    <g id="Group_106" data-name="Group 106">
      <g id="Group_99" data-name="Group 99">
        <g id="Group_97" data-name="Group 97">
          <path id="Path_218" data-name="Path 218" d="M96.163,92.674c-2.5-7.753-8.417-5.958-8.971-5.771-.581.068-6.7.976-5.641,9.053,1.063,8.126,5.778,12.529,10.2,11.236C96.3,106.47,98.677,100.473,96.163,92.674Z" fill="#cc887f"/>
          <path id="Path_219" data-name="Path 219" d="M146.065,92.674c2.5-7.753,8.417-5.958,8.971-5.771.581.068,6.7.976,5.641,9.053-1.063,8.126-5.777,12.529-10.2,11.236C145.929,106.47,143.551,100.473,146.065,92.674Z" fill="#cc887f"/>
          <path id="Path_220" data-name="Path 220" d="M90.1,80.928c3.1-33.99,28.938-32.086,31.375-31.83,2.437-.256,28.278-2.16,31.375,31.83,3.115,34.194-12.115,56.525-31.375,55.3C102.215,137.453,86.985,115.122,90.1,80.928Z" fill="#ffac9d"/>
        </g>
        <g id="Group_98" data-name="Group 98">
          <path id="Path_221" data-name="Path 221" d="M89.027,87.388s-1.667,44.667,24.666,49.667,42.667-17,40.334-52l-3.334-.333s-2.166,35.333-10.166,35.666,3.833-11-11.5-11.666-22.922-5.778-24.167,7.166c-.833,8.667-11.5-6.166-12.833-29.166S89.027,87.388,89.027,87.388Z" fill="#965450"/>
          <path id="Path_222" data-name="Path 222" d="M93.29,96.986a79.634,79.634,0,0,1-1.263-10.264c-1.334-23-3,.666-3,.666a90.374,90.374,0,0,0,.518,11.529C90.8,98.281,92.044,97.633,93.29,96.986Z" fill="#76413b"/>
          <path id="Path_223" data-name="Path 223" d="M154.057,97.282a92.16,92.16,0,0,0-.03-12.227l-3.334-.333s-.3,4.839-1.076,10.95Q151.842,96.462,154.057,97.282Z" fill="#76413b"/>
        </g>
      </g>
      <g id="Group_100" data-name="Group 100">
        <path id="Path_224" data-name="Path 224" d="M125.931,84.914l2.109,19.057-5.91,4.052" fill="none" stroke="#cc887f" stroke-miterlimit="10" stroke-width="1.661"/>
        <path id="Path_225" data-name="Path 225" d="M145.844,82.394s-8.1-9.9-16.207-.675" fill="none" stroke="#352c38" stroke-miterlimit="10" stroke-width="2.701"/>
        <path id="Path_226" data-name="Path 226" d="M113.655,82.394s-8.1-9.9-16.207-.675" fill="none" stroke="#352c38" stroke-miterlimit="10" stroke-width="2.701"/>
        <path id="Path_227" data-name="Path 227" d="M112.634,94.712s-.466-6.532-6.065-6.066c-4.7.392-4.2,6.066-4.2,6.066" fill="none" stroke="#352c38" stroke-miterlimit="10" stroke-width="1.195"/>
        <path id="Path_228" data-name="Path 228" d="M141.56,94.245s-.467-6.532-6.065-6.065c-4.7.392-4.2,6.065-4.2,6.065" fill="none" stroke="#352c38" stroke-miterlimit="10" stroke-width="1.195"/>
        <path id="Path_229" data-name="Path 229" d="M134.649,114.129c-6.152,5.98-16.573,5.648-24.466.319" fill="#fff"/>
      </g>
      <g id="Group_105" data-name="Group 105">
        <g id="Group_101" data-name="Group 101">
          <path id="Path_230" data-name="Path 230" d="M121.937,54.055s-18.667-3.333-21.667,8.333,1.333,27.334-12.333,25c0,0-9.91,2-3.577,17.667,0,0-18.757-18-7.757-31,8.974-10.6,5.334-33.667,27.334-37.333S121.937,49.722,121.937,54.055Z" fill="#76413b"/>
        </g>
        <g id="Group_102" data-name="Group 102">
          <path id="Path_231" data-name="Path 231" d="M121.937,54.055s-18.667-3.333-21.667,8.333,1.333,27.334-12.333,25c0,0-9.91,2-3.577,17.667,0,0-18.757-18-7.757-31,8.974-10.6,5.334-33.667,27.334-37.333S121.937,49.722,121.937,54.055Z" fill="#965450"/>
        </g>
        <g id="Group_103" data-name="Group 103">
          <path id="Path_232" data-name="Path 232" d="M120.236,54.055S138.9,50.722,141.9,62.388s-1.334,27.334,12.333,25c0,0,9.91,2,3.577,17.667,0,0,18.756-18,7.756-31-8.973-10.6-5.333-33.667-27.333-37.333S120.236,49.722,120.236,54.055Z" fill="#965450"/>
        </g>
        <g id="Group_104" data-name="Group 104">
          <path id="Path_233" data-name="Path 233" d="M119.976,52.661s19.448-.748,21.4,11.138-3.747,27.109,10.073,25.993c0,0,5.976.531,5.9,5.209" fill="none" stroke="#965450" stroke-miterlimit="10" stroke-width="2.721"/>
        </g>
      </g>
    </g>
  </g>
</svg>
